HIERARCHY
ROOT Hips
{
  OFFSET 267.745 86.9975 -272.335
  CHANNELS 6 Xposition Yposition Zposition Zrotation Xrotation Yrotation
  JOINT LeftUpLeg
  {
    OFFSET 8.64259 1.95398 -2.38835
    CHANNELS 3 Zrotation Xrotation Yrotation
    JOINT LeftLeg
    {
      OFFSET 43.7702 0 0
      CHANNELS 3 Zrotation Xrotation Yrotation
      JOINT LeftFoot
      {
        OFFSET 40.6238 0 0
        CHANNELS 3 Zrotation Xrotation Yrotation
        JOINT LeftToeBase
        {
          OFFSET 12.7242 0 0
          CHANNELS 3 Zrotation Xrotation Yrotation
          End Site
          {
            OFFSET 0 0 0
          }
        }
      }
    }
  }
  JOINT RightUpLeg
  {
    OFFSET -8.2249 1.95398 -2.59336
    CHANNELS 3 Zrotation Xrotation Yrotation
    JOINT RightLeg
    {
      OFFSET 43.5653 0 0
      CHANNELS 3 Zrotation Xrotation Yrotation
      JOINT RightFoot
      {
        OFFSET 40.6238 0 0
        CHANNELS 3 Zrotation Xrotation Yrotation
        JOINT RightToeBase
        {
          OFFSET 12.7242 0 0
          CHANNELS 3 Zrotation Xrotation Yrotation
          End Site
          {
            OFFSET 0 0 0
          }
        }
      }
    }
  }
  JOINT Spine
  {
    OFFSET 0.165834 0.87714 6.61349
    CHANNELS 3 Zrotation Xrotation Yrotation
    JOINT Spine1
    {
      OFFSET 7.38963 1.71661e-005 0
      CHANNELS 3 Zrotation Xrotation Yrotation
      JOINT Spine2
      {
        OFFSET 11.9445 1.14441e-005 0
        CHANNELS 3 Zrotation Xrotation Yrotation
        JOINT Spine3
        {
          OFFSET 14.7254 4.19617e-005 0
          CHANNELS 3 Zrotation Xrotation Yrotation
          JOINT Spine4
          {
            OFFSET 10.9679 0 0
            CHANNELS 3 Zrotation Xrotation Yrotation
            JOINT RightShoulder
            {
              OFFSET 2.46616 -1.6653 3.69651
              CHANNELS 3 Zrotation Xrotation Yrotation
              JOINT RightArm
              {
                OFFSET 13.0012 0 0
                CHANNELS 3 Zrotation Xrotation Yrotation
                JOINT RightForeArm
                {
                  OFFSET 28.7848 1.52588e-005 0
                  CHANNELS 3 Zrotation Xrotation Yrotation
                  JOINT RightHand
                  {
                    OFFSET 26.5688 1.52588e-005 0
                    CHANNELS 3 Zrotation Xrotation Yrotation
                    End Site
                    {
                      OFFSET 0 0 0
                    }
                  }
                }
              }
            }
            JOINT LeftShoulder
            {
              OFFSET 2.38034 -1.29275 -3.7523
              CHANNELS 3 Zrotation Xrotation Yrotation
              JOINT LeftArm
              {
                OFFSET 16.3182 6.10352e-005 0
                CHANNELS 3 Zrotation Xrotation Yrotation
                JOINT LeftForeArm
                {
                  OFFSET 27.0901 0 0
                  CHANNELS 3 Zrotation Xrotation Yrotation
                  JOINT LeftHand
                  {
                    OFFSET 24.5451 1.52588e-005 0
                    CHANNELS 3 Zrotation Xrotation Yrotation
                    End Site
                    {
                      OFFSET 0 0 0
                    }
                  }
                }
              }
            }
            JOINT Neck
            {
              OFFSET 5.0226 -0.0266342 0
              CHANNELS 3 Zrotation Xrotation Yrotation
              JOINT Head
              {
                OFFSET 6.69364 2.86102e-005 0
                CHANNELS 3 Zrotation Xrotation Yrotation
                End Site
                {
                  OFFSET 0 0 0
                }
              }
            }
          }
        }
      }
    }
  }
}
MOTION
Frames:	10
Frame Time:	0.0416667
-129.701 96.6355 -18.5418 117.786 -84.1958 119.176 -178.834 2.83386 86.5563 -16.4268 21.4371 2.94148 60.6353 6.59337 17.3032 36.3162 -0.662747 -3.58467 174.032 6.66126 87.0497 -24.3321 1.08419 0.436852 61.8228 5.82377 14.7077 34.4591 -1.42619 0.484205 -0.27364 7.36307 -90.5937 12.1427 -0.824761 -1.09357 0.47156 -0.872086 -1.05622 -22.0607 -0.457998 -1.29086 -2.04806 -0.458 -1.29086 102.839 -55.6602 -81.1911 21.5228 1.80726 -5.81484 -1.10368 -14.268 -16.7693 -14.5643 -0.897126 2.01201 -84.6196 -46.2543 86.1047 -35.3296 1.36513 -16.1902 -0.986833 43.1759 -3.24457 -1.23307 -0.124777 -7.95681 3.32973 -0.376006 -14.7814 -16.7219 0.821527 11.774 
-130.463 96.9947 -18.4791 113.912 -83.3562 115.055 -178.215 1.76869 87.0356 -14.1138 22.6878 2.84918 60.0567 5.55341 16.0234 35.0003 -0.470662 -3.62735 174.146 5.11707 87.3404 -21.9377 3.95164 0.320939 62.3911 6.45654 16.9386 30.1149 -0.330706 -0.00943397 -0.374767 7.23287 -90.4453 12.4045 -0.95622 -0.779982 0.733659 -0.989615 -0.737149 -21.8012 -0.677613 -1.03129 -1.78858 -0.677615 -1.03131 103.413 -55.6362 -80.3528 24.1083 2.75526 -4.97971 -1.51935 -13.8698 -17.6126 -14.6441 -0.878241 1.81824 -83.7726 -45.7151 87.3836 -35.4178 1.62386 -18.0493 -3.09049 44.3742 -0.146061 0.364579 -0.179901 -8.1096 0.59562 -0.031722 -13.6569 -15.6632 0.842325 10.9393 
-131.034 97.1722 -18.3397 109.831 -84.3441 110.792 -177.982 1.17846 87.1895 -11.4869 22.0425 2.84584 59.5965 4.81637 15.0255 34.1612 -0.341399 -3.73132 174.551 4.82201 87.5826 -20.0109 4.84649 0.0301607 62.792 6.87121 18.6876 27.2032 0.45704 -0.619819 -0.252011 6.99175 -90.3454 12.8882 -0.665817 -0.609895 1.21725 -0.692016 -0.580014 -21.3175 -0.45174 -0.781804 -1.30483 -0.451738 -0.781802 103.372 -55.4981 -80.4109 25.939 3.50004 -3.09148 -2.08687 -13.7722 -18.9674 -14.9581 -0.879992 1.6797 -83.6008 -46.0772 87.6978 -35.3142 0.732629 -18.2558 -2.49264 45.0318 -0.279433 -0.357562 -0.157313 -8.16045 -0.13249 0.104329 -10.7762 -17.5155 0.643334 8.08707 
-131.523 97.3641 -18.1991 113.13 -85.3344 113.81 -177.245 0.0439555 87.4959 -9.12651 21.2364 2.40401 59.6092 4.38667 13.768 32.4371 -0.0740681 -3.9563 175.001 4.09499 87.7867 -18.3265 4.14284 -0.397493 62.6747 6.88855 18.4114 25.6116 0.871462 -0.673553 -0.151249 6.86987 -90.2483 13.1335 -0.419733 -0.445319 1.46259 -0.438921 -0.426423 -21.0722 -0.266494 -0.550878 -1.05959 -0.266492 -0.550879 103.059 -55.5836 -80.868 26.8345 2.98841 -2.14487 -2.30963 -14.4508 -19.1622 -15.0418 -0.850299 1.41666 -82.9301 -46.7904 88.8347 -34.2858 1.14726 -17.8628 -1.32928 43.6603 -2.44109 0.270601 -0.174061 -8.01674 -0.51578 0.542216 -10.2567 -18.0886 0.857928 8.69405 
-132.014 97.4266 -18.1121 112.752 -86.1138 113.315 -176.468 -0.107862 87.9938 -8.1586 20.9472 1.89447 59.7988 3.98773 13.1334 31.9831 0.0491896 -4.56746 175.334 3.88352 88.0922 -17.2208 3.54474 -0.586156 62.6313 6.8974 17.9756 25.2981 0.882817 -0.10556 -0.0887682 6.76673 -90.2005 13.3398 -0.27296 -0.366724 1.66882 -0.28884 -0.354361 -20.866 -0.150129 -0.431805 -0.853376 -0.150126 -0.431808 102.901 -55.4068 -81.0956 27.4061 2.1667 -2.38662 -1.93092 -15.0015 -18.09 -15.1137 -0.883059 1.63377 -82.7925 -47.4838 89.1181 -33.9087 0.936367 -17.3418 -0.483464 41.2796 -3.79448 1.89973 -0.233949 -8.18409 -1.37367 0.479394 -10.8315 -16.3485 0.7005 10.8129 
-132.463 97.4453 -18.2313 114.661 -86.8546 115.305 -176.054 0.0873692 88.4212 -7.93065 20.6685 1.69923 59.5165 3.57939 13.01 32.5703 -0.0217187 -4.78893 175.294 4.03602 88.3156 -16.9768 3.03648 -0.349754 63.2021 6.43902 17.6817 23.8591 1.17651 0.388845 -0.0505598 6.67057 -90.1757 13.5324 -0.185393 -0.327942 1.86139 -0.199647 -0.319467 -20.6735 -0.0782625 -0.368502 -0.660816 -0.0782717 -0.368507 102.555 -55.1373 -81.6001 27.6789 0.938947 -2.66403 -1.72613 -16.4752 -16.5644 -13.7799 -0.823063 1.79845 -82.8756 -48.2256 89.0578 -33.4339 0.312979 -16.5915 0.053131 40.3534 -4.40513 3.65431 -0.285553 -8.07334 -1.30171 0.621587 -10.4666 -16.2738 0.773659 11.108 
-132.823 97.4695 -18.535 118.35 -86.7522 118.617 -176.456 0.251936 88.1604 -8.31787 21.0919 1.89065 59.0166 3.43356 13.2286 32.9073 -0.165555 -3.67736 175.243 4.3712 88.1282 -17.5755 2.414 -0.337259 62.9873 6.57324 17.5546 24.3762 1.22054 -0.914147 -0.0640031 6.66464 -90.1411 13.5443 -0.195331 -0.25736 1.87336 -0.206464 -0.248527 -20.6616 -0.108962 -0.304165 -0.648998 -0.10895 -0.304168 102.467 -54.375 -81.7238 28.5184 0.765862 -3.29195 -1.83051 -18.513 -15.1552 -12.395 -0.767852 2.077 -83.2044 -49.0368 88.6302 -33.3375 -0.460085 -16.4708 -0.042185 40.01 -3.78573 3.57533 -0.303689 -8.49525 0.141966 0.713469 -9.53128 -17.87 0.78008 10.5065 
-133.109 97.4824 -18.7964 125.134 -86.4737 125.499 -176.544 0.0693117 88.3023 -8.59222 20.9933 2.1376 58.6249 3.30211 13.284 33.6701 -0.275269 -3.6809 175.188 4.13915 88.3395 -17.7885 2.34918 -0.194489 62.9996 6.43622 17.3635 24.1297 1.2887 -0.951618 -0.0813946 6.71557 -90.1309 13.4425 -0.224799 -0.233428 1.77152 -0.234855 -0.223313 -20.7635 -0.144257 -0.290194 -0.7509 -0.144253 -0.290195 102.022 -54.0422 -82.3837 29.1167 0.439896 -3.26815 -1.65884 -18.0946 -14.9961 -11.6516 -0.700331 1.87153 -82.9979 -49.4009 88.9809 -33.1869 -0.333722 -16.93 -0.771187 40.4281 -2.74635 1.69189 -0.273047 -9.52384 1.73785 1.03975 -7.94872 -19.2286 1.14118 8.41 
-133.404 97.5018 -18.9581 135.832 -86.3044 136.212 -176.43 -0.424402 88.4611 -8.63646 20.3404 2.23822 58.6774 3.29329 12.7734 33.4959 -0.270926 -3.40165 175.121 3.69846 88.436 -17.9747 2.13293 -0.13738 63.3706 6.24838 17.4974 23.325 1.52956 -1.16826 -0.0303549 6.77712 -90.1174 13.3195 -0.11688 -0.220198 1.64853 -0.126462 -0.214848 -20.8865 -0.0453066 -0.245147 -0.873831 -0.0453062 -0.245153 101.934 -53.991 -82.5144 29.3116 0.0403744 -3.12516 -1.77642 -17.9528 -15.4212 -11.1431 -0.685204 2.0412 -83.1223 -49.3127 88.7827 -33.6647 -0.99692 -17.4834 -1.57701 42.2108 -0.95047 0.720735 -0.233238 -9.53301 2.07761 1.19961 -6.63997 -18.9892 1.33483 6.88779 
-133.682 97.4915 -19.0355 136.368 -86.2659 136.566 -176.403 -0.418316 88.4776 -8.62759 20.5366 2.19536 58.4446 3.16235 13.0789 34.3594 -0.376879 -3.64865 175.286 3.81555 88.5046 -18.1552 2.08958 -0.30145 63.0323 6.52299 17.406 24.1219 1.31397 -1.12015 -0.0209418 6.76616 -90.092 13.3415 -0.085979 -0.173349 1.67051 -0.0935292 -0.169405 -20.8646 -0.0299122 -0.191173 -0.85192 -0.0299152 -0.191181 101.906 -53.9764 -82.5569 29.2719 -0.851621 -2.80705 -1.79168 -17.6239 -16.0705 -11.4844 -0.67695 1.73113 -83.2386 -49.2118 88.5938 -34.0469 -1.12027 -18.1223 -2.08592 41.6058 -0.00415373 4.80983 -0.336548 -8.28841 1.89361 0.765937 -6.12589 -18.5404 0.789867 7.28558 
